HIERARCHY
ROOT Hips
{
 OFFSET 0.000000 0.000000 0.000000
 CHANNELS 6 Xposition Yposition Zposition Yrotation Xrotation Zrotation
 JOINT Chest
 {
  OFFSET 0.000000 10.383400 0.001500
  CHANNELS 3 Yrotation Xrotation Zrotation
  JOINT Chest2
  {
   OFFSET 0.000000 10.418200 -0.003100
   CHANNELS 3 Yrotation Xrotation Zrotation
   JOINT Chest3
   {
    OFFSET 0.000000 10.375100 0.000000
    CHANNELS 3 Yrotation Xrotation Zrotation
    JOINT Chest4
    {
     OFFSET 0.000000 10.364600 0.000000
     CHANNELS 3 Yrotation Xrotation Zrotation
     JOINT Neck
     {
      OFFSET 0.000000 15.642200 0.000000
      CHANNELS 3 Yrotation Xrotation Zrotation
      JOINT Head
      {
       OFFSET 0.000000 9.697300 -0.006500
       CHANNELS 3 Yrotation Xrotation Zrotation
       End Site
       {
        OFFSET 0.000000 18.492200 -0.003400
       }
      }
     }
     JOINT RightCollar
     {
      OFFSET -3.166800 10.349300 0.000000
      CHANNELS 3 Yrotation Xrotation Zrotation
      JOINT RightShoulder
      {
       OFFSET -14.729700 0.000000 0.000000
       CHANNELS 3 Yrotation Xrotation Zrotation
       JOINT RightElbow
       {
        OFFSET 0.000000 -32.224300 0.000000
        CHANNELS 3 Yrotation Xrotation Zrotation
        JOINT RightWrist
        {
         OFFSET 0.000000 -26.084100 0.000000
         CHANNELS 3 Yrotation Xrotation Zrotation
         End Site
         {
          OFFSET 0.000000 -19.319400 0.000000
         }
        }
       }
      }
     }
     JOINT LeftCollar
     {
      OFFSET 3.166800 10.349300 0.000000
      CHANNELS 3 Yrotation Xrotation Zrotation
      JOINT LeftShoulder
      {
       OFFSET 14.729700 0.000000 0.000000
       CHANNELS 3 Yrotation Xrotation Zrotation
       JOINT LeftElbow
       {
        OFFSET 0.000000 -32.224300 0.000000
        CHANNELS 3 Yrotation Xrotation Zrotation
        JOINT LeftWrist
        {
         OFFSET 0.000000 -26.084100 0.000000
         CHANNELS 3 Yrotation Xrotation Zrotation
         End Site
         {
          OFFSET 0.000000 -19.319400 0.000000
         }
        }
       }
      }
     }
    }
   }
  }
 }
 JOINT RightHip
 {
  OFFSET -8.428900 -0.007500 -0.000800
  CHANNELS 3 Yrotation Xrotation Zrotation
  JOINT RightKnee
  {
   OFFSET 0.000000 -43.834600 0.000700
   CHANNELS 3 Yrotation Xrotation Zrotation
   JOINT RightAnkle
   {
    OFFSET 0.000000 -42.757000 0.001200
    CHANNELS 3 Yrotation Xrotation Zrotation
    JOINT RightToe
    {
     OFFSET 0.000000 -6.946900 15.649300
     CHANNELS 3 Yrotation Xrotation Zrotation
     End Site
     {
      OFFSET 0.000000 -1.580800 6.825800
     }
    }
   }
  }
 }
 JOINT LeftHip
 {
  OFFSET 8.428900 -0.007500 -0.000800
  CHANNELS 3 Yrotation Xrotation Zrotation
  JOINT LeftKnee
  {
   OFFSET 0.000000 -43.834600 0.000700
   CHANNELS 3 Yrotation Xrotation Zrotation
   JOINT LeftAnkle
   {
    OFFSET 0.000000 -42.757000 0.001200
    CHANNELS 3 Yrotation Xrotation Zrotation
    JOINT LeftToe
    {
     OFFSET 0.000000 -6.946900 15.649300
     CHANNELS 3 Yrotation Xrotation Zrotation
     End Site
     {
      OFFSET 0.000000 -1.580800 6.825800
     }
    }
   }
  }
 }
}
MOTION
Frames: 11
Frame Time: 0.008333
0.000000 93.354300 0.000000 0.000000 -5.767877 0.000000 0.000000 11.653817 0.000000 0.000000 -5.885947 0.000000 0.000000 -0.000000 0.000000 0.000000 -0.000000 0.000000 0.000000 12.528835 0.000000 0.000000 0.711642 0.000000 0.000000 -0.000000 0.000000 0.000000 0.000000 -90.000000 0.000000 -2.309062 0.000000 0.000000 2.309062 0.000000 0.000000 -0.000000 0.000000 0.000000 -0.000000 90.000000 0.000000 -2.309062 0.000000 0.000000 2.309062 0.000000 0.000000 8.520406 0.000000 0.000000 1.905762 0.000000 -0.000000 -4.658285 0.000000 0.000000 -0.000000 0.000000 0.000000 8.520406 0.000000 0.000000 1.905762 0.000000 -0.000000 -4.658285 0.000000 0.000000 -0.000000 0.000000
22.316415 126.932409 -46.915197 -16.356671 -28.120331 -0.841439 -0.143884 15.900848 1.944393 -0.039444 1.554246 0.191088 -0.059407 2.606354 0.318743 -0.149961 14.107281 1.720708 1.494459 14.947204 -1.009122 3.187733 -7.983037 -2.458414 -2.878578 -4.304109 -2.020424 5.383934 -13.373810 -8.926828 28.976338 -43.354346 -3.659108 4.725205 2.858531 -14.355107 -2.103965 -6.406942 -3.811533 -2.523920 -9.090134 6.778619 -30.136999 -48.464946 10.021588 -26.311816 6.537577 14.178389 -4.523754 -42.052659 -0.516386 -23.577398 76.834528 -24.895537 5.165373 -5.902521 6.547035 0.000313 -0.006794 0.000139 -2.587566 -34.889577 -3.898918 -7.358095 69.260426 -4.326805 -13.825857 -5.264013 -4.115150 0.000261 0.000325 0.000116
22.316640 126.932226 -46.915945 -16.353723 -28.117537 -0.840986 -0.147805 15.897883 1.943133 -0.041042 1.553439 0.191439 -0.058249 2.606746 0.318396 -0.158461 14.102822 1.723516 1.500327 14.951617 -1.014169 3.184058 -7.987274 -2.454841 -2.877255 -4.298201 -2.023705 5.389090 -13.376515 -8.920954 28.978359 -43.350832 -3.666336 4.725672 2.856309 -14.350974 -2.090908 -6.399056 -3.817028 -2.521027 -9.088237 6.773081 -30.147283 -48.463849 10.036749 -26.312423 6.528676 14.177943 -4.525624 -42.057208 -0.519196 -23.584295 76.835364 -24.898557 5.160599 -5.902447 6.544863 0.001132 -0.006717 0.000503 -2.585450 -34.893409 -3.902578 -7.367685 69.260339 -4.334703 -13.823327 -5.262664 -4.113634 0.000474 0.000147 0.000210
22.316854 126.932231 -46.916464 -16.353008 -28.117243 -0.839053 -0.154532 15.895808 1.940754 -0.038774 1.554134 0.190616 -0.062035 2.604551 0.318907 -0.164259 14.100674 1.722049 1.503205 14.952346 -1.014082 3.191616 -7.982737 -2.458740 -2.869912 -4.294733 -2.017510 5.389987 -13.374905 -8.923807 28.976410 -43.351872 -3.669199 4.733803 2.857350 -14.341297 -2.074073 -6.389621 -3.812579 -2.527669 -9.090251 6.760155 -30.149593 -48.455137 10.050035 -26.311600 6.518634 14.177084 -4.524603 -42.059572 -0.522270 -23.588578 76.837605 -24.902561 5.157371 -5.902951 6.546199 0.000735 -0.006426 0.000326 -2.581912 -34.893230 -3.908771 -7.368403 69.260151 -4.334421 -13.816715 -5.263012 -4.109669 0.000505 0.000799 0.000224
22.316745 126.932826 -46.916009 -16.357595 -28.124410 -0.834733 -0.158724 15.896752 1.937778 -0.036882 1.557464 0.189363 -0.064309 2.603610 0.319299 -0.168377 14.099333 1.720613 1.505156 14.952656 -1.012947 3.195482 -7.979968 -2.459345 -2.859236 -4.288793 -2.016051 5.383496 -13.376278 -8.924665 28.970054 -43.354977 -3.663666 4.745415 2.859595 -14.335863 -2.061531 -6.382677 -3.814115 -2.532240 -9.091617 6.753957 -30.155069 -48.444311 10.063687 -26.312263 6.506617 14.172387 -4.516326 -42.054674 -0.526716 -23.594349 76.839772 -24.907258 5.156153 -5.903163 6.546709 0.001354 -0.006616 0.000601 -2.567941 -34.882271 -3.919750 -7.383062 69.256554 -4.336299 -13.824179 -5.270170 -4.107886 -0.001027 0.000891 -0.000456
22.316312 126.933117 -46.916251 -16.356743 -28.128555 -0.835670 -0.159960 15.898761 1.938413 -0.039604 1.557442 0.190626 -0.062780 2.604913 0.318579 -0.167333 14.096358 1.721113 1.504465 14.952007 -1.010655 3.192976 -7.981872 -2.453816 -2.858935 -4.284765 -2.016219 5.379814 -13.377251 -8.925082 28.957452 -43.364289 -3.660988 4.753120 2.864597 -14.329681 -2.059342 -6.377264 -3.815916 -2.535471 -9.093916 6.747805 -30.161808 -48.437426 10.074496 -26.337286 6.504493 14.164587 -4.515648 -42.052389 -0.527357 -23.600152 76.842131 -24.909194 5.154951 -5.903516 6.543718 0.003610 -0.006913 0.001602 -2.565383 -34.878025 -3.924939 -7.401658 69.256577 -4.346216 -13.820258 -5.272140 -4.110590 -0.000566 0.000975 -0.000251
22.316485 126.933073 -46.916902 -16.355152 -28.129377 -0.834224 -0.161604 15.896440 1.936157 -0.037731 1.552347 0.193903 -0.063091 2.604676 0.318750 -0.169791 14.100937 1.720351 1.503806 14.953631 -1.011816 3.192846 -7.980266 -2.453607 -2.865728 -4.282468 -2.015412 5.382416 -13.377285 -8.925807 28.951710 -43.366703 -3.657627 4.742374 2.866406 -14.338184 -2.063517 -6.371322 -3.816878 -2.532042 -9.096347 6.741134 -30.172680 -48.424460 10.098042 -26.351980 6.494719 14.156060 -4.513564 -42.053574 -0.528552 -23.606409 76.840922 -24.916246 5.143044 -5.900597 6.550612 0.001954 -0.007221 0.000867 -2.560935 -34.876709 -3.938682 -7.389449 69.259812 -4.331354 -13.791162 -5.277192 -4.109083 0.001127 0.000537 0.000500
22.316773 126.932917 -46.917648 -16.354968 -28.129296 -0.831503 -0.161522 15.893265 1.940496 -0.039412 1.553990 0.190517 -0.063088 2.604254 0.318812 -0.169947 14.099848 1.721059 1.502753 14.954505 -1.014564 3.192124 -7.985003 -2.450861 -2.868108 -4.278932 -2.018163 5.379019 -13.379903 -8.917564 28.954822 -43.364251 -3.660958 4.746173 2.866408 -14.340728 -2.066017 -6.373267 -3.818566 -2.528995 -9.091667 6.736288 -30.212062 -48.403905 10.145568 -26.347292 6.477185 14.151008 -4.509554 -42.055352 -0.531702 -23.617673 76.840745 -24.928172 5.141128 -5.902296 6.553590 0.001374 -0.006946 0.000610 -2.538308 -34.876012 -3.965823 -7.381194 69.263465 -4.299626 -13.780560 -5.282033 -4.113496 0.000224 -0.000101 0.000099
22.317113 126.932657 -46.918501 -16.356185 -28.128168 -0.827976 -0.162169 15.891496 1.941129 -0.039418 1.553624 0.190593 -0.063054 2.604588 0.316699 -0.169082 14.099050 1.723255 1.502549 14.951546 -1.013813 3.195191 -7.993994 -2.447425 -2.868115 -4.276101 -2.021981 5.365297 -13.387786 -8.908921 28.968203 -43.358526 -3.662577 4.739174 2.865061 -14.347276 -2.066242 -6.372589 -3.821220 -2.531251 -9.094840 6.726524 -30.236207 -48.385865 10.177408 -26.350476 6.467116 14.150412 -4.504765 -42.057693 -0.534372 -23.626636 76.840805 -24.936814 5.131719 -5.906983 6.558047 -0.000068 -0.006940 -0.000030 -2.524124 -34.876467 -3.984516 -7.378494 69.267228 -4.288309 -13.753743 -5.286113 -4.113288 0.001444 -0.000316 0.000641
22.317573 126.932524 -46.919012 -16.356297 -28.128509 -0.823982 -0.163077 15.889948 1.940789 -0.039593 1.553286 0.190658 -0.063765 2.606569 0.314913 -0.168668 14.099020 1.722710 1.504779 14.948188 -1.010323 3.193122 -7.996783 -2.445965 -2.870393 -4.274181 -2.023225 5.357172 -13.394205 -8.901868 28.969167 -43.358408 -3.664404 4.742362 2.868794 -14.341958 -2.072532 -6.374268 -3.818398 -2.545545 -9.091132 6.712173 -30.248270 -48.369789 10.214572 -26.342381 6.459254 14.150301 -4.500930 -42.058626 -0.538133 -23.629431 76.841523 -24.939796 5.122892 -5.910080 6.561079 -0.001179 -0.006679 -0.000523 -2.513031 -34.876895 -3.995482 -7.402850 69.267208 -4.301186 -13.768102 -5.284145 -4.112147 0.001035 -0.000015 0.000459
22.317268 126.932555 -46.919442 -16.355752 -28.130479 -0.824645 -0.164440 15.888381 1.942314 -0.038632 1.555206 0.190863 -0.063182 2.605242 0.318375 -0.171982 14.096484 1.722371 1.504506 14.944302 -1.006612 3.194729 -7.992474 -2.448933 -2.871118 -4.270129 -2.029285 5.349305 -13.401253 -8.885188 28.969009 -43.347354 -3.668194 4.746473 2.869384 -14.343704 -2.081415 -6.369372 -3.819410 -2.551312 -9.093416 6.705347 -30.247702 -48.358036 10.231857 -26.350337 6.449472 14.157889 -4.501905 -42.057952 -0.538364 -23.612505 76.844720 -24.918728 5.120590 -5.911331 6.555453 0.001552 -0.007079 0.000689 -2.511291 -34.876710 -3.995747 -7.422492 69.268031 -4.310124 -13.802319 -5.283747 -4.113890 -0.000371 -0.000008 -0.000165
